<svg xmlns="http://www.w3.org/2000/svg" width="375" height="375" viewBox="0 0 375 375">
  <g id="Group_4" data-name="Group 4" transform="translate(0 -237)">
    <rect id="Rectangle_3" data-name="Rectangle 3" width="375" height="375" transform="translate(0 237)" fill="none"/>
    <g id="Group_3" data-name="Group 3" transform="translate(0.351 14.18)">
      <path id="Path_1" data-name="Path 1" d="M153.391,460l22.323,49.147,73.222-15.412V434.613L170.918,427Z" transform="translate(-10.149 -57)" fill="#0045ad" stroke="#fff" stroke-linecap="round" stroke-linejoin="round" stroke-width="5"/>
      <path id="Path_2" data-name="Path 2" d="M171.565,364.839v61.319l77.237,7.856L284.4,377.6,228.415,336.82Z" transform="translate(-10.149 -56)" fill="#f7931e" stroke="#fff" stroke-linecap="round" stroke-linejoin="round" stroke-width="5"/>
      <path id="Path_3" data-name="Path 3" d="M89.467,371.118l82.485-4.933,23.117,63.664L153.89,460.027,86.825,446.091Z" transform="translate(-10.149 -57)" fill="#ff5900" stroke="#fff" stroke-linecap="round" stroke-linejoin="round" stroke-width="5"/>
      <path id="Path_4" data-name="Path 4" d="M63.8,513.806,86.4,445.347l66.926,14.9,21.527,48.723L152.58,552.783Z" transform="translate(-10.149 -57)" fill="#009b48" stroke="#fff" stroke-linecap="round" stroke-linejoin="round" stroke-width="5"/>
      <path id="Path_5" data-name="Path 5" d="M168.585,561.238l-21.516-44.463,21.516-44.207,74.157-14.37,33.448,48.645-20.562,47.575Z" transform="translate(-4.149 -22)" fill="#fff022" stroke="#fff" stroke-linecap="round" stroke-linejoin="round" stroke-width="5"/>
      <path id="Path_6" data-name="Path 6" d="M325.5,413.292,278.315,343.35,243,399.95v57.637h0l33.161,50.079Z" transform="translate(-4.149 -22)" fill="#ff0073" stroke="#fff" stroke-linecap="round" stroke-linejoin="round" stroke-width="5"/>
    </g>
  </g>
</svg>
